<svg width="165" height="33" viewBox="0 0 165 33" fill="none" xmlns="http://www.w3.org/2000/svg">
<path d="M16.5 0L20.2045 11.4012H32.1924L22.494 18.4476L26.1985 29.8488L16.5 22.8024L6.80154 29.8488L10.506 18.4476L0.807568 11.4012H12.7955L16.5 0Z" fill="#FFC700"/>
<path d="M49.5 0L53.2045 11.4012H65.1924L55.494 18.4476L59.1985 29.8488L49.5 22.8024L39.8015 29.8488L43.506 18.4476L33.8076 11.4012H45.7955L49.5 0Z" fill="#FFC700"/>
<path d="M82.5 0L86.2045 11.4012H98.1924L88.494 18.4476L92.1985 29.8488L82.5 22.8024L72.8015 29.8488L76.506 18.4476L66.8076 11.4012H78.7955L82.5 0Z" fill="#FFC700"/>
<path d="M115.5 0L119.204 11.4012H131.192L121.494 18.4476L125.198 29.8488L115.5 22.8024L105.802 29.8488L109.506 18.4476L99.8076 11.4012H111.796L115.5 0Z" fill="#FFC700"/>
<path d="M148.5 0L152.204 11.4012H164.192L154.494 18.4476L158.198 29.8488L148.5 22.8024L138.802 29.8488L142.506 18.4476L132.808 11.4012H144.796L148.5 0Z" fill="#C4C4C4"/>
</svg>
