<svg width="39" height="39" viewBox="0 0 39 39" fill="none" xmlns="http://www.w3.org/2000/svg">
<circle cx="19.5" cy="19.5" r="19.5" fill="#EB6D60"/>
<path d="M19.0575 7.15571C19.3722 6.26782 20.6278 6.26783 20.9425 7.1557L23.2159 13.5694C23.4989 14.3677 24.254 14.9012 25.101 14.9012H32.1607C33.1504 14.9012 33.5387 16.185 32.715 16.7335L27.2346 20.3835C26.4719 20.8914 26.152 21.8526 26.4581 22.7163L28.6032 28.7681C28.9245 29.6743 27.9066 30.4675 27.1064 29.9345L21.1086 25.94C20.4372 25.4929 19.5628 25.4929 18.8914 25.94L12.8936 29.9345C12.0934 30.4675 11.0755 29.6744 11.3968 28.7681L13.5419 22.7163C13.848 21.8526 13.5281 20.8914 12.7654 20.3835L7.28497 16.7335C6.46128 16.1849 6.84964 14.9012 7.83929 14.9012H14.899C15.746 14.9012 16.5011 14.3677 16.7841 13.5694L19.0575 7.15571Z" fill="white" stroke="#EB6D60"/>
</svg>
